<svg width="24" height="25" viewBox="0 0 24 25" fill="none" xmlns="http://www.w3.org/2000/svg">
<path d="M6.57757 15.7863C5.1628 16.6287 1.45336 18.3488 3.71266 20.5013C4.81631 21.5527 6.04549 22.3047 7.59087 22.3047H16.4091C17.9545 22.3047 19.1837 21.5527 20.2873 20.5013C22.5466 18.3488 18.8372 16.6287 17.4224 15.7863C14.1048 13.8108 9.89519 13.8108 6.57757 15.7863Z" stroke="#17171F" stroke-width="1.5" stroke-linecap="round" stroke-linejoin="round"/>
<path d="M16.5 6.80469C16.5 9.28997 14.4853 11.3047 12 11.3047C9.51472 11.3047 7.5 9.28997 7.5 6.80469C7.5 4.31941 9.51472 2.30469 12 2.30469C14.4853 2.30469 16.5 4.31941 16.5 6.80469Z" stroke="#17171F" stroke-width="1.5"/>
</svg>
