<svg width="25" height="25" viewBox="0 0 25 25" fill="none" xmlns="http://www.w3.org/2000/svg">
<path d="M4.51263 4.27985H8.52263V2.27985H2.51263V8.27985H4.51263V4.27985ZM4.51263 16.2798H2.51263V22.2798H8.52263V20.2798H4.51263V16.2798ZM20.5126 20.2798H16.5126V22.2798H22.5126V16.2798H20.5126V20.2798ZM16.5126 4.27985H20.5126V8.27985H22.5126V2.27985H16.5126V4.27985Z" fill="white"/>
<path d="M5.51263 11.2798H11.5126V5.27985H5.51263V11.2798ZM7.51263 7.27985H9.51263V9.27985H7.51263V7.27985ZM5.51263 19.2798H11.5126V13.2798H5.51263V19.2798ZM7.51263 15.2798H9.51263V17.2798H7.51263V15.2798ZM19.5126 5.27985H13.5126V11.2798H19.5126V5.27985ZM17.5126 9.27985H15.5126V7.27985H17.5126V9.27985ZM13.5226 13.2798H15.5226V15.2798H13.5226V13.2798ZM15.5226 15.2798H17.5226V17.2798H15.5226V15.2798ZM17.5226 17.2798H19.5226V19.2798H17.5226V17.2798ZM17.5226 13.2798H19.5226V15.2798H17.5226V13.2798Z" fill="white"/>
</svg>
