<svg width="99" height="19" viewBox="0 0 99 19" fill="none" xmlns="http://www.w3.org/2000/svg">
<path d="M3.88931 3.33V5.886H8.01131V8.262H3.88931V11.034H8.55131V13.5H0.811313V0.864H8.55131V3.33H3.88931ZM9.93759 8.46C9.93759 7.428 10.1296 6.522 10.5136 5.742C10.9096 4.962 11.4436 4.362 12.1156 3.942C12.7876 3.522 13.5376 3.312 14.3656 3.312C15.0736 3.312 15.6916 3.456 16.2196 3.744C16.7596 4.032 17.1736 4.41 17.4616 4.878V3.456H20.5396V13.5H17.4616V12.078C17.1616 12.546 16.7416 12.924 16.2016 13.212C15.6736 13.5 15.0556 13.644 14.3476 13.644C13.5316 13.644 12.7876 13.434 12.1156 13.014C11.4436 12.582 10.9096 11.976 10.5136 11.196C10.1296 10.404 9.93759 9.492 9.93759 8.46ZM17.4616 8.478C17.4616 7.71 17.2456 7.104 16.8136 6.66C16.3936 6.216 15.8776 5.994 15.2656 5.994C14.6536 5.994 14.1316 6.216 13.6996 6.66C13.2796 7.092 13.0696 7.692 13.0696 8.46C13.0696 9.228 13.2796 9.84 13.6996 10.296C14.1316 10.74 14.6536 10.962 15.2656 10.962C15.8776 10.962 16.3936 10.74 16.8136 10.296C17.2456 9.852 17.4616 9.246 17.4616 8.478ZM26.8524 13.644C25.9764 13.644 25.1964 13.494 24.5124 13.194C23.8284 12.894 23.2884 12.486 22.8924 11.97C22.4964 11.442 22.2744 10.854 22.2264 10.206H25.2684C25.3044 10.554 25.4664 10.836 25.7544 11.052C26.0424 11.268 26.3964 11.376 26.8164 11.376C27.2004 11.376 27.4944 11.304 27.6984 11.16C27.9144 11.004 28.0224 10.806 28.0224 10.566C28.0224 10.278 27.8724 10.068 27.5724 9.936C27.2724 9.792 26.7864 9.636 26.1144 9.468C25.3944 9.3 24.7944 9.126 24.3144 8.946C23.8344 8.754 23.4204 8.46 23.0724 8.064C22.7244 7.656 22.5504 7.11 22.5504 6.426C22.5504 5.85 22.7064 5.328 23.0184 4.86C23.3424 4.38 23.8104 4.002 24.4224 3.726C25.0464 3.45 25.7844 3.312 26.6364 3.312C27.8964 3.312 28.8864 3.624 29.6064 4.248C30.3384 4.872 30.7584 5.7 30.8664 6.732H28.0224C27.9744 6.384 27.8184 6.108 27.5544 5.904C27.3024 5.7 26.9664 5.598 26.5464 5.598C26.1864 5.598 25.9104 5.67 25.7184 5.814C25.5264 5.946 25.4304 6.132 25.4304 6.372C25.4304 6.66 25.5804 6.876 25.8804 7.02C26.1924 7.164 26.6724 7.308 27.3204 7.452C28.0644 7.644 28.6704 7.836 29.1384 8.028C29.6064 8.208 30.0144 8.508 30.3624 8.928C30.7224 9.336 30.9084 9.888 30.9204 10.584C30.9204 11.172 30.7524 11.7 30.4164 12.168C30.0924 12.624 29.6184 12.984 28.9944 13.248C28.3824 13.512 27.6684 13.644 26.8524 13.644ZM43.0635 3.456L36.7635 18.27H33.4515L35.7555 13.158L31.6695 3.456H35.1075L37.4295 9.738L39.7335 3.456H43.0635Z" fill="#17171F"/>
<path d="M47.2545 11.124H51.2865V13.5H44.1765V0.864H47.2545V11.124ZM57.3267 13.644C56.3427 13.644 55.4547 13.434 54.6627 13.014C53.8827 12.594 53.2647 11.994 52.8087 11.214C52.3647 10.434 52.1427 9.522 52.1427 8.478C52.1427 7.446 52.3707 6.54 52.8267 5.76C53.2827 4.968 53.9067 4.362 54.6987 3.942C55.4907 3.522 56.3787 3.312 57.3627 3.312C58.3467 3.312 59.2347 3.522 60.0267 3.942C60.8187 4.362 61.4427 4.968 61.8987 5.76C62.3547 6.54 62.5827 7.446 62.5827 8.478C62.5827 9.51 62.3487 10.422 61.8807 11.214C61.4247 11.994 60.7947 12.594 59.9907 13.014C59.1987 13.434 58.3107 13.644 57.3267 13.644ZM57.3267 10.98C57.9147 10.98 58.4127 10.764 58.8207 10.332C59.2407 9.9 59.4507 9.282 59.4507 8.478C59.4507 7.674 59.2467 7.056 58.8387 6.624C58.4427 6.192 57.9507 5.976 57.3627 5.976C56.7627 5.976 56.2647 6.192 55.8687 6.624C55.4727 7.044 55.2747 7.662 55.2747 8.478C55.2747 9.282 55.4667 9.9 55.8507 10.332C56.2467 10.764 56.7387 10.98 57.3267 10.98ZM63.6036 8.46C63.6036 7.428 63.7956 6.522 64.1796 5.742C64.5756 4.962 65.1096 4.362 65.7816 3.942C66.4536 3.522 67.2036 3.312 68.0316 3.312C68.7396 3.312 69.3576 3.456 69.8856 3.744C70.4256 4.032 70.8396 4.41 71.1276 4.878V3.456H74.2056V13.5H71.1276V12.078C70.8276 12.546 70.4076 12.924 69.8676 13.212C69.3396 13.5 68.7216 13.644 68.0136 13.644C67.1976 13.644 66.4536 13.434 65.7816 13.014C65.1096 12.582 64.5756 11.976 64.1796 11.196C63.7956 10.404 63.6036 9.492 63.6036 8.46ZM71.1276 8.478C71.1276 7.71 70.9116 7.104 70.4796 6.66C70.0596 6.216 69.5436 5.994 68.9316 5.994C68.3196 5.994 67.7976 6.216 67.3656 6.66C66.9456 7.092 66.7356 7.692 66.7356 8.46C66.7356 9.228 66.9456 9.84 67.3656 10.296C67.7976 10.74 68.3196 10.962 68.9316 10.962C69.5436 10.962 70.0596 10.74 70.4796 10.296C70.9116 9.852 71.1276 9.246 71.1276 8.478ZM75.8204 8.46C75.8204 7.428 76.0124 6.522 76.3964 5.742C76.7924 4.962 77.3264 4.362 77.9984 3.942C78.6704 3.522 79.4204 3.312 80.2484 3.312C80.9084 3.312 81.5084 3.45 82.0484 3.726C82.6004 4.002 83.0324 4.374 83.3444 4.842V0.18H86.4224V13.5H83.3444V12.06C83.0564 12.54 82.6424 12.924 82.1024 13.212C81.5744 13.5 80.9564 13.644 80.2484 13.644C79.4204 13.644 78.6704 13.434 77.9984 13.014C77.3264 12.582 76.7924 11.976 76.3964 11.196C76.0124 10.404 75.8204 9.492 75.8204 8.46ZM83.3444 8.478C83.3444 7.71 83.1284 7.104 82.6964 6.66C82.2764 6.216 81.7604 5.994 81.1484 5.994C80.5364 5.994 80.0144 6.216 79.5824 6.66C79.1624 7.092 78.9524 7.692 78.9524 8.46C78.9524 9.228 79.1624 9.84 79.5824 10.296C80.0144 10.74 80.5364 10.962 81.1484 10.962C81.7604 10.962 82.2764 10.74 82.6964 10.296C83.1284 9.852 83.3444 9.246 83.3444 8.478ZM98.1172 8.316C98.1172 8.604 98.0992 8.904 98.0632 9.216H91.0972C91.1452 9.84 91.3432 10.32 91.6912 10.656C92.0512 10.98 92.4892 11.142 93.0052 11.142C93.7732 11.142 94.3072 10.818 94.6072 10.17H97.8832C97.7152 10.83 97.4092 11.424 96.9652 11.952C96.5332 12.48 95.9872 12.894 95.3272 13.194C94.6672 13.494 93.9292 13.644 93.1132 13.644C92.1292 13.644 91.2532 13.434 90.4852 13.014C89.7172 12.594 89.1172 11.994 88.6852 11.214C88.2532 10.434 88.0372 9.522 88.0372 8.478C88.0372 7.434 88.2472 6.522 88.6672 5.742C89.0992 4.962 89.6992 4.362 90.4672 3.942C91.2352 3.522 92.1172 3.312 93.1132 3.312C94.0852 3.312 94.9492 3.516 95.7052 3.924C96.4612 4.332 97.0492 4.914 97.4692 5.67C97.9012 6.426 98.1172 7.308 98.1172 8.316ZM94.9672 7.506C94.9672 6.978 94.7872 6.558 94.4272 6.246C94.0672 5.934 93.6172 5.778 93.0772 5.778C92.5612 5.778 92.1232 5.928 91.7632 6.228C91.4152 6.528 91.1992 6.954 91.1152 7.506H94.9672Z" fill="#73BC02"/>
</svg>
