<svg width="25" height="25" viewBox="0 0 25 25" fill="none" xmlns="http://www.w3.org/2000/svg">
<g filter="url(#filter0_d_616_13)">
<path d="M-25 -15H107.385C118.908 -15 127.919 -5.01094 131.433 5.96291C135.131 17.5099 143.555 29.5245 162.607 29.5245C181.488 29.5245 189.772 17.723 193.366 6.27164C196.848 -4.82399 205.886 -15 217.515 -15H350V70H-25V-15Z" fill="white"/>
</g>
<path d="M2.60884 13.5182C2.25582 11.2209 2.07931 10.0723 2.51362 9.05407C2.94792 8.03581 3.91148 7.33912 5.83859 5.94575L7.27844 4.90469C9.67574 3.17136 10.8743 2.30469 12.2574 2.30469C13.6405 2.30469 14.8391 3.17136 17.2364 4.90469L18.6763 5.94575C20.6034 7.33912 21.5669 8.03581 22.0012 9.05407C22.4355 10.0723 22.259 11.2209 21.906 13.5182L21.605 15.4771C21.1045 18.7336 20.8543 20.3619 19.6864 21.3333C18.5185 22.3047 16.8111 22.3047 13.3962 22.3047H11.1186C7.70378 22.3047 5.99636 22.3047 4.82845 21.3333C3.66054 20.3619 3.41032 18.7336 2.90988 15.4771L2.60884 13.5182Z" fill="#73BC02" stroke="#73BC02" stroke-width="1.5" stroke-linejoin="round"/>
<path d="M12.2574 18.3047V15.3047V18.3047Z" fill="#D9D9D9"/>
<path d="M12.2574 18.3047V15.3047" stroke="white" stroke-width="1.5" stroke-linecap="round"/>
<defs>
<filter id="filter0_d_616_13" x="-36" y="-22" width="397" height="107" filterUnits="userSpaceOnUse" color-interpolation-filters="sRGB">
<feFlood flood-opacity="0" result="BackgroundImageFix"/>
<feColorMatrix in="SourceAlpha" type="matrix" values="0 0 0 0 0 0 0 0 0 0 0 0 0 0 0 0 0 0 127 0" result="hardAlpha"/>
<feOffset dy="4"/>
<feGaussianBlur stdDeviation="5.5"/>
<feComposite in2="hardAlpha" operator="out"/>
<feColorMatrix type="matrix" values="0 0 0 0 0 0 0 0 0 0 0 0 0 0 0 0 0 0 0.25 0"/>
<feBlend mode="normal" in2="BackgroundImageFix" result="effect1_dropShadow_616_13"/>
<feBlend mode="normal" in="SourceGraphic" in2="effect1_dropShadow_616_13" result="shape"/>
</filter>
</defs>
</svg>
