<svg width="24" height="24" viewBox="0 0 24 24" fill="none" xmlns="http://www.w3.org/2000/svg">
<path d="M6.5 9C7.60457 9 8.5 8.10457 8.5 7C8.5 5.89543 7.60457 5 6.5 5C5.39543 5 4.5 5.89543 4.5 7C4.5 8.10457 5.39543 9 6.5 9Z" stroke="#17171F" stroke-width="1.5"/>
<path d="M16.5 19C17.6046 19 18.5 18.1046 18.5 17C18.5 15.8954 17.6046 15 16.5 15C15.3954 15 14.5 15.8954 14.5 17C14.5 18.1046 15.3954 19 16.5 19Z" stroke="#17171F" stroke-width="1.5"/>
<path opacity="0.5" d="M16.5 9C17.6046 9 18.5 8.10457 18.5 7C18.5 5.89543 17.6046 5 16.5 5C15.3954 5 14.5 5.89543 14.5 7C14.5 8.10457 15.3954 9 16.5 9Z" stroke="#17171F" stroke-width="1.5"/>
<path opacity="0.5" d="M6.5 19C7.60457 19 8.5 18.1046 8.5 17C8.5 15.8954 7.60457 15 6.5 15C5.39543 15 4.5 15.8954 4.5 17C4.5 18.1046 5.39543 19 6.5 19Z" stroke="#17171F" stroke-width="1.5"/>
</svg>
