<svg width="25" height="25" viewBox="0 0 25 25" fill="none" xmlns="http://www.w3.org/2000/svg">
<path d="M4.55383 10.5539C4.20911 10.5539 3.86777 10.6218 3.54929 10.7537C3.23081 10.8857 2.94143 11.079 2.69768 11.3228C2.45392 11.5665 2.26057 11.8559 2.12865 12.1744C1.99673 12.4929 1.92883 12.8342 1.92883 13.1789C1.92883 13.5236 1.99673 13.865 2.12865 14.1835C2.26057 14.5019 2.45392 14.7913 2.69768 15.0351C2.94143 15.2788 3.23081 15.4722 3.54929 15.6041C3.86777 15.736 4.20911 15.8039 4.55383 15.8039C5.25003 15.8039 5.91771 15.5274 6.40999 15.0351C6.90227 14.5428 7.17883 13.8751 7.17883 13.1789C7.17883 12.4827 6.90227 11.8151 6.40999 11.3228C5.91771 10.8305 5.25003 10.5539 4.55383 10.5539ZM4.55383 12.0539C4.8522 12.0539 5.13835 12.1725 5.34933 12.3834C5.56031 12.5944 5.67883 12.8806 5.67883 13.1789C5.67883 13.4773 5.56031 13.7634 5.34933 13.9744C5.13835 14.1854 4.8522 14.3039 4.55383 14.3039C4.25546 14.3039 3.96932 14.1854 3.75834 13.9744C3.54736 13.7634 3.42883 13.4773 3.42883 13.1789C3.42883 12.8806 3.54736 12.5944 3.75834 12.3834C3.96932 12.1725 4.25546 12.0539 4.55383 12.0539ZM12.4288 10.5539C12.7736 10.5539 13.1149 10.6218 13.4334 10.7537C13.7519 10.8857 14.0412 11.079 14.285 11.3228C14.5287 11.5665 14.7221 11.8559 14.854 12.1744C14.9859 12.4929 15.0538 12.8342 15.0538 13.1789C15.0538 13.5236 14.9859 13.865 14.854 14.1835C14.7221 14.5019 14.5287 14.7913 14.285 15.0351C14.0412 15.2788 13.7519 15.4722 13.4334 15.6041C13.1149 15.736 12.7736 15.8039 12.4288 15.8039C11.7326 15.8039 11.065 15.5274 10.5727 15.0351C10.0804 14.5428 9.80383 13.8751 9.80383 13.1789C9.80383 12.4827 10.0804 11.8151 10.5727 11.3228C11.065 10.8305 11.7326 10.5539 12.4288 10.5539ZM12.4288 12.0539C12.1305 12.0539 11.8443 12.1725 11.6333 12.3834C11.4224 12.5944 11.3038 12.8806 11.3038 13.1789C11.3038 13.4773 11.4224 13.7634 11.6333 13.9744C11.8443 14.1854 12.1305 14.3039 12.4288 14.3039C12.7272 14.3039 13.0133 14.1854 13.2243 13.9744C13.4353 13.7634 13.5538 13.4773 13.5538 13.1789C13.5538 12.8806 13.4353 12.5944 13.2243 12.3834C13.0133 12.1725 12.7272 12.0539 12.4288 12.0539ZM20.3038 10.5539C20.6486 10.5539 20.9899 10.6218 21.3084 10.7537C21.6269 10.8857 21.9162 11.079 22.16 11.3228C22.4037 11.5665 22.5971 11.8559 22.729 12.1744C22.8609 12.4929 22.9288 12.8342 22.9288 13.1789C22.9288 13.5236 22.8609 13.865 22.729 14.1835C22.5971 14.5019 22.4037 14.7913 22.16 15.0351C21.9162 15.2788 21.6269 15.4722 21.3084 15.6041C20.9899 15.736 20.6486 15.8039 20.3038 15.8039C19.6076 15.8039 18.94 15.5274 18.4477 15.0351C17.9554 14.5428 17.6788 13.8751 17.6788 13.1789C17.6788 12.4827 17.9554 11.8151 18.4477 11.3228C18.94 10.8305 19.6076 10.5539 20.3038 10.5539ZM20.3038 12.0539C20.0055 12.0539 19.7193 12.1725 19.5083 12.3834C19.2974 12.5944 19.1788 12.8806 19.1788 13.1789C19.1788 13.4773 19.2974 13.7634 19.5083 13.9744C19.7193 14.1854 20.0055 14.3039 20.3038 14.3039C20.6022 14.3039 20.8883 14.1854 21.0993 13.9744C21.3103 13.7634 21.4288 13.4773 21.4288 13.1789C21.4288 12.8806 21.3103 12.5944 21.0993 12.3834C20.8883 12.1725 20.6022 12.0539 20.3038 12.0539Z" fill="#17171F"/>
</svg>
