<svg width="30" height="30" viewBox="0 0 30 30" fill="none" xmlns="http://www.w3.org/2000/svg">
<rect x="0.833008" y="0.571655" width="28.5916" height="28.5916" rx="7.5" fill="white" stroke="#EAEAEA"/>
<path d="M12.8788 6.61743H8.37878C7.98096 6.61743 7.59943 6.77547 7.31812 7.05677C7.03682 7.33808 6.87878 7.71961 6.87878 8.11743V12.6174C6.87878 13.0153 7.03682 13.3968 7.31812 13.6781C7.59943 13.9594 7.98096 14.1174 8.37878 14.1174H12.8788C13.2766 14.1174 13.6581 13.9594 13.9394 13.6781C14.2207 13.3968 14.3788 13.0153 14.3788 12.6174V8.11743C14.3788 7.71961 14.2207 7.33808 13.9394 7.05677C13.6581 6.77547 13.2766 6.61743 12.8788 6.61743ZM12.8788 12.6174H8.37878V8.11743H12.8788V12.6174ZM12.8788 15.6174H8.37878C7.98096 15.6174 7.59943 15.7755 7.31812 16.0568C7.03682 16.3381 6.87878 16.7196 6.87878 17.1174V21.6174C6.87878 22.0153 7.03682 22.3968 7.31812 22.6781C7.59943 22.9594 7.98096 23.1174 8.37878 23.1174H12.8788C13.2766 23.1174 13.6581 22.9594 13.9394 22.6781C14.2207 22.3968 14.3788 22.0153 14.3788 21.6174V17.1174C14.3788 16.7196 14.2207 16.3381 13.9394 16.0568C13.6581 15.7755 13.2766 15.6174 12.8788 15.6174ZM12.8788 21.6174H8.37878V17.1174H12.8788V21.6174ZM21.8788 6.61743H17.3788C16.981 6.61743 16.5994 6.77547 16.3181 7.05677C16.0368 7.33808 15.8788 7.71961 15.8788 8.11743V12.6174C15.8788 13.0153 16.0368 13.3968 16.3181 13.6781C16.5994 13.9594 16.981 14.1174 17.3788 14.1174H21.8788C22.2766 14.1174 22.6581 13.9594 22.9394 13.6781C23.2207 13.3968 23.3788 13.0153 23.3788 12.6174V8.11743C23.3788 7.71961 23.2207 7.33808 22.9394 7.05677C22.6581 6.77547 22.2766 6.61743 21.8788 6.61743ZM21.8788 12.6174H17.3788V8.11743H21.8788V12.6174ZM15.8788 19.3674V16.3674C15.8788 16.1685 15.9578 15.9778 16.0985 15.8371C16.2391 15.6964 16.4299 15.6174 16.6288 15.6174C16.8277 15.6174 17.0185 15.6964 17.1591 15.8371C17.2998 15.9778 17.3788 16.1685 17.3788 16.3674V19.3674C17.3788 19.5663 17.2998 19.7571 17.1591 19.8978C17.0185 20.0384 16.8277 20.1174 16.6288 20.1174C16.4299 20.1174 16.2391 20.0384 16.0985 19.8978C15.9578 19.7571 15.8788 19.5663 15.8788 19.3674ZM23.3788 17.8674C23.3788 18.0663 23.2998 18.2571 23.1591 18.3978C23.0185 18.5384 22.8277 18.6174 22.6288 18.6174H20.3788V22.3674C20.3788 22.5663 20.2998 22.7571 20.1591 22.8978C20.0185 23.0384 19.8277 23.1174 19.6288 23.1174H16.6288C16.4299 23.1174 16.2391 23.0384 16.0985 22.8978C15.9578 22.7571 15.8788 22.5663 15.8788 22.3674C15.8788 22.1685 15.9578 21.9778 16.0985 21.8371C16.2391 21.6964 16.4299 21.6174 16.6288 21.6174H18.8788V16.3674C18.8788 16.1685 18.9578 15.9778 19.0985 15.8371C19.2391 15.6964 19.4299 15.6174 19.6288 15.6174C19.8277 15.6174 20.0185 15.6964 20.1591 15.8371C20.2998 15.9778 20.3788 16.1685 20.3788 16.3674V17.1174H22.6288C22.8277 17.1174 23.0185 17.1964 23.1591 17.3371C23.2998 17.4778 23.3788 17.6685 23.3788 17.8674ZM23.3788 20.8674V22.3674C23.3788 22.5663 23.2998 22.7571 23.1591 22.8978C23.0185 23.0384 22.8277 23.1174 22.6288 23.1174C22.4299 23.1174 22.2391 23.0384 22.0985 22.8978C21.9578 22.7571 21.8788 22.5663 21.8788 22.3674V20.8674C21.8788 20.6685 21.9578 20.4778 22.0985 20.3371C22.2391 20.1964 22.4299 20.1174 22.6288 20.1174C22.8277 20.1174 23.0185 20.1964 23.1591 20.3371C23.2998 20.4778 23.3788 20.6685 23.3788 20.8674Z" fill="#80D202"/>
<path d="M12.8788 6.61743H8.37878C7.98096 6.61743 7.59943 6.77547 7.31812 7.05677C7.03682 7.33808 6.87878 7.71961 6.87878 8.11743V12.6174C6.87878 13.0153 7.03682 13.3968 7.31812 13.6781C7.59943 13.9594 7.98096 14.1174 8.37878 14.1174H12.8788C13.2766 14.1174 13.6581 13.9594 13.9394 13.6781C14.2207 13.3968 14.3788 13.0153 14.3788 12.6174V8.11743C14.3788 7.71961 14.2207 7.33808 13.9394 7.05677C13.6581 6.77547 13.2766 6.61743 12.8788 6.61743ZM12.8788 12.6174H8.37878V8.11743H12.8788V12.6174ZM12.8788 15.6174H8.37878C7.98096 15.6174 7.59943 15.7755 7.31812 16.0568C7.03682 16.3381 6.87878 16.7196 6.87878 17.1174V21.6174C6.87878 22.0153 7.03682 22.3968 7.31812 22.6781C7.59943 22.9594 7.98096 23.1174 8.37878 23.1174H12.8788C13.2766 23.1174 13.6581 22.9594 13.9394 22.6781C14.2207 22.3968 14.3788 22.0153 14.3788 21.6174V17.1174C14.3788 16.7196 14.2207 16.3381 13.9394 16.0568C13.6581 15.7755 13.2766 15.6174 12.8788 15.6174ZM12.8788 21.6174H8.37878V17.1174H12.8788V21.6174ZM21.8788 6.61743H17.3788C16.981 6.61743 16.5994 6.77547 16.3181 7.05677C16.0368 7.33808 15.8788 7.71961 15.8788 8.11743V12.6174C15.8788 13.0153 16.0368 13.3968 16.3181 13.6781C16.5994 13.9594 16.981 14.1174 17.3788 14.1174H21.8788C22.2766 14.1174 22.6581 13.9594 22.9394 13.6781C23.2207 13.3968 23.3788 13.0153 23.3788 12.6174V8.11743C23.3788 7.71961 23.2207 7.33808 22.9394 7.05677C22.6581 6.77547 22.2766 6.61743 21.8788 6.61743ZM21.8788 12.6174H17.3788V8.11743H21.8788V12.6174ZM23.3788 17.8674C23.3788 18.0663 23.2998 18.2571 23.1591 18.3978C23.0185 18.5384 22.8277 18.6174 22.6288 18.6174H20.3788V22.3674C20.3788 22.5663 20.2998 22.7571 20.1591 22.8978C20.0185 23.0384 19.8277 23.1174 19.6288 23.1174H16.6288C16.4299 23.1174 16.2391 23.0384 16.0985 22.8978C15.9578 22.7571 15.8788 22.5663 15.8788 22.3674C15.8788 22.1685 15.9578 21.9778 16.0985 21.8371C16.2391 21.6964 16.4299 21.6174 16.6288 21.6174H18.8788V16.3674C18.8788 16.1685 18.9578 15.9778 19.0985 15.8371C19.2391 15.6964 19.4299 15.6174 19.6288 15.6174C19.8277 15.6174 20.0185 15.6964 20.1591 15.8371C20.2998 15.9778 20.3788 16.1685 20.3788 16.3674V17.1174H22.6288C22.8277 17.1174 23.0185 17.1964 23.1591 17.3371C23.2998 17.4778 23.3788 17.6685 23.3788 17.8674Z" fill="#17171F"/>
</svg>
