<svg width="37" height="37" viewBox="0 0 37 37" fill="none" xmlns="http://www.w3.org/2000/svg">
<circle cx="18.6316" cy="18.4507" r="18.1779" fill="#222222"/>
<path d="M10.3116 19.4508L9.78359 19.9828C9.92405 20.122 10.1138 20.2001 10.3116 20.2001C10.5094 20.2001 10.6991 20.122 10.8396 19.9828L10.3116 19.4508ZM12.5196 18.3168C12.6609 18.1765 12.7408 17.9857 12.7415 17.7866C12.7423 17.5874 12.6639 17.3961 12.5236 17.2548C12.4541 17.1848 12.3715 17.1291 12.2806 17.0911C12.1896 17.053 12.092 17.0332 11.9934 17.0328C11.7943 17.0321 11.6029 17.1105 11.4616 17.2508L12.5186 18.3158L12.5196 18.3168ZM9.15959 17.2508C9.01758 17.1146 8.82777 17.0397 8.63106 17.0422C8.43435 17.0447 8.2465 17.1244 8.10799 17.2641C7.96948 17.4038 7.89139 17.5923 7.89057 17.789C7.88975 17.9857 7.96625 18.1749 8.10359 18.3158L9.15959 17.2508ZM25.2476 13.8428C25.2979 13.9293 25.365 14.005 25.4449 14.0652C25.5249 14.1254 25.6161 14.169 25.7132 14.1934C25.8103 14.2179 25.9112 14.2226 26.0102 14.2074C26.1091 14.1922 26.204 14.1573 26.2893 14.1048C26.3745 14.0523 26.4484 13.9833 26.5066 13.9019C26.5647 13.8204 26.606 13.7281 26.6279 13.6304C26.6499 13.5327 26.652 13.4317 26.6343 13.3331C26.6165 13.2346 26.5792 13.1406 26.5246 13.0568L25.2476 13.8428ZM18.7106 8.70075C13.6636 8.70075 9.56059 12.7618 9.56059 17.7838H11.0606C11.0606 13.6018 14.4806 10.2008 18.7106 10.2008V8.70075ZM9.56059 17.7838V19.4508H11.0606V17.7838H9.56059ZM10.8406 19.9838L12.5196 18.3168L11.4616 17.2508L9.78159 18.9178L10.8386 19.9818L10.8406 19.9838ZM10.8406 18.9188L9.15959 17.2508L8.10259 18.3158L9.78259 19.9818L10.8386 18.9178L10.8406 18.9188ZM26.5246 13.0588C25.7037 11.7249 24.5543 10.6238 23.1864 9.8608C21.8186 9.09782 20.2769 8.69841 18.7106 8.70075V10.2008C20.0208 10.198 21.3109 10.5315 22.4554 11.1694C23.5999 11.8072 24.5616 12.728 25.2486 13.8438L26.5256 13.0578L26.5246 13.0588ZM26.9456 17.4508L27.4726 16.9178C27.3322 16.7791 27.1429 16.7014 26.9456 16.7014C26.7483 16.7014 26.559 16.7791 26.4186 16.9178L26.9456 17.4508ZM24.7316 18.5838C24.6615 18.653 24.6058 18.7354 24.5676 18.8262C24.5294 18.917 24.5094 19.0145 24.5088 19.113C24.5077 19.312 24.5857 19.5033 24.7256 19.6448C24.8655 19.7862 25.0559 19.8664 25.2548 19.8675C25.4538 19.8686 25.6451 19.7907 25.7866 19.6508L24.7316 18.5838ZM28.1046 19.6508C28.1742 19.7218 28.2573 19.7783 28.3491 19.817C28.4408 19.8556 28.5392 19.8756 28.6388 19.8758C28.7383 19.876 28.8368 19.8564 28.9287 19.8181C29.0206 19.7799 29.1039 19.7237 29.1738 19.6529C29.2438 19.5821 29.2989 19.4981 29.3361 19.4058C29.3732 19.3134 29.3916 19.2146 29.3902 19.1151C29.3888 19.0156 29.3676 18.9174 29.3278 18.8262C29.288 18.7349 29.2305 18.6525 29.1586 18.5838L28.1046 19.6508ZM11.9496 23.0568C11.8451 22.8874 11.6776 22.7665 11.484 22.7207C11.2903 22.6748 11.0864 22.7078 10.9171 22.8123C10.7477 22.9167 10.6269 23.0842 10.581 23.2779C10.5351 23.4715 10.5681 23.6754 10.6726 23.8448L11.9496 23.0568ZM18.5146 28.2008C23.5766 28.2008 27.6946 24.1428 27.6946 19.1178H26.1946C26.1946 23.2978 22.7646 26.7008 18.5146 26.7008V28.2008ZM27.6946 19.1178V17.4508H26.1946V19.1178H27.6946ZM26.4186 16.9178L24.7316 18.5838L25.7866 19.6508L27.4726 17.9838L26.4186 16.9178ZM26.4186 17.9838L28.1046 19.6508L29.1586 18.5838L27.4726 16.9178L26.4186 17.9838ZM10.6716 23.8438C11.498 25.1791 12.6526 26.2806 14.0253 27.0433C15.3981 27.8059 16.9432 28.2044 18.5136 28.2008V26.7008C17.1992 26.7044 15.9058 26.3715 14.7566 25.7336C13.6074 25.0957 12.6417 24.1741 11.9496 23.0568L10.6726 23.8448L10.6716 23.8438Z" fill="white"/>
</svg>
