<svg width="25" height="25" viewBox="0 0 25 25" fill="none" xmlns="http://www.w3.org/2000/svg">
<path d="M13.3453 7.32125L18.1182 8.59294M12.3222 11.1181L14.7086 11.7539M12.4409 18.2711L13.3955 18.5255C16.0954 19.2448 17.4454 19.6045 18.5089 18.994C19.5724 18.3834 19.9342 17.041 20.6576 14.3563L21.6807 10.5595C22.4042 7.87474 22.7659 6.53237 22.1519 5.47485C21.5379 4.41733 20.1879 4.05764 17.4879 3.33827L16.5333 3.08393C13.8334 2.36455 12.4834 2.00487 11.4199 2.61543C10.3563 3.22599 9.99459 4.56836 9.27114 7.2531L8.24802 11.0499C7.52456 13.7346 7.16284 15.077 7.77686 16.1345C8.39088 17.1921 9.74086 17.5518 12.4409 18.2711Z" stroke="#17171F" stroke-width="1.5" stroke-linecap="round"/>
<path d="M12.4644 21.251L11.5121 21.5103C8.81839 22.2438 7.47158 22.6106 6.41055 21.988C5.34953 21.3655 4.98865 19.9968 4.26689 17.2594L3.24618 13.3881C2.52442 10.6507 2.16354 9.282 2.77613 8.20373C3.30603 7.271 4.46436 7.30496 5.96436 7.30484" stroke="#17171F" stroke-width="1.5" stroke-linecap="round"/>
</svg>
