<svg width="33" height="33" viewBox="0 0 33 33" fill="none" xmlns="http://www.w3.org/2000/svg">
<path d="M18.5712 23.8039L19.9852 25.2179L22.5712 22.6319L22.5712 30.8039L24.5712 30.8039L24.5712 22.6319L27.1572 25.2179L28.5712 23.8039L23.5712 18.8039L18.5712 23.8039Z" fill="#17171F"/>
<path d="M10.5712 28.8039V10.8039H22.5712V15.8039H24.5712V6.80392C24.5706 6.27365 24.3598 5.76525 23.9848 5.3903C23.6098 5.01534 23.1014 4.80445 22.5712 4.80392H10.5712C10.0409 4.80445 9.5325 5.01534 9.15754 5.3903C8.78258 5.76525 8.5717 6.27365 8.57117 6.80392V28.8039C8.5717 29.3342 8.78258 29.8426 9.15754 30.2176C9.5325 30.5925 10.0409 30.8034 10.5712 30.8039H16.5712V28.8039H10.5712ZM10.5712 6.80392H22.5712V8.80392H10.5712V6.80392Z" fill="#17171F"/>
</svg>
