<svg width="25" height="25" viewBox="0 0 25 25" fill="none" xmlns="http://www.w3.org/2000/svg">
<path fill-rule="evenodd" clip-rule="evenodd" d="M10.1819 4.05392H14.2939C16.1319 4.05392 17.5879 4.05392 18.7269 4.20692C19.8989 4.36492 20.8479 4.69692 21.5969 5.44492C22.2749 6.12292 22.6119 6.96692 22.7869 7.99492C22.9139 8.74492 22.9599 9.63392 22.9769 10.6779C22.99 10.7539 22.9913 10.8315 22.9809 10.9079C22.9839 11.1939 22.9859 11.4919 22.9869 11.8019C22.9874 12.0008 22.9089 12.1918 22.7686 12.3328C22.6992 12.4027 22.6167 12.4581 22.5258 12.4961C22.4349 12.534 22.3374 12.5537 22.2389 12.5539C22.04 12.5545 21.849 12.4759 21.708 12.3357C21.567 12.1954 21.4874 12.0048 21.4869 11.8059V11.5539H2.9889C2.9869 11.9419 2.9869 12.3579 2.9869 12.8039C2.9869 14.7109 2.9889 16.0649 3.1269 17.0939C3.2619 18.0989 3.5159 18.6789 3.9389 19.1019C4.3619 19.5249 4.9419 19.7789 5.9479 19.9139C6.9759 20.0519 8.3299 20.0539 10.2369 20.0539H11.7369C11.9358 20.0539 12.1266 20.1329 12.2672 20.2736C12.4079 20.4142 12.4869 20.605 12.4869 20.8039C12.4869 21.0028 12.4079 21.1936 12.2672 21.3343C12.1266 21.4749 11.9358 21.5539 11.7369 21.5539H10.1819C8.3439 21.5539 6.8879 21.5539 5.7489 21.4009C4.5769 21.2429 3.6279 20.9109 2.8789 20.1629C2.1309 19.4139 1.7989 18.4649 1.6409 17.2929C1.4879 16.1529 1.4879 14.6979 1.4879 12.8599V12.7479C1.4879 12.0859 1.4879 11.4739 1.4949 10.9079C1.48418 10.8316 1.48519 10.754 1.4979 10.6779C1.5139 9.77092 1.5509 8.98792 1.6409 8.31492C1.7989 7.14292 2.1309 6.19392 2.8789 5.44492C3.6279 4.69692 4.5769 4.36492 5.7489 4.20692C6.8889 4.05392 8.3439 4.05392 10.1819 4.05392ZM3.0139 10.0539H21.4619C21.4379 9.33892 21.3919 8.74792 21.3079 8.24592C21.1649 7.40392 20.9209 6.89092 20.5359 6.50592C20.1129 6.08292 19.5329 5.82892 18.5269 5.69392C17.4999 5.55592 16.1449 5.55392 14.2379 5.55392H10.2379C8.3309 5.55392 6.9769 5.55592 5.9479 5.69392C4.9429 5.82892 4.3629 6.08292 3.9399 6.50592C3.5169 6.92892 3.2629 7.50892 3.1279 8.51492C3.0679 8.95992 3.0339 9.46692 3.0139 10.0539ZM15.7379 14.0539C15.9368 14.0539 16.1276 14.1329 16.2682 14.2736C16.4089 14.4142 16.4879 14.605 16.4879 14.8039V18.9939L17.2079 18.2739C17.2766 18.2002 17.3594 18.1411 17.4514 18.1001C17.5434 18.0592 17.6427 18.0371 17.7434 18.0353C17.8441 18.0336 17.9441 18.0521 18.0375 18.0898C18.1309 18.1275 18.2157 18.1837 18.2869 18.2549C18.3582 18.3261 18.4143 18.4109 18.452 18.5043C18.4897 18.5977 18.5083 18.6977 18.5065 18.7984C18.5047 18.8991 18.4827 18.9985 18.4417 19.0905C18.4007 19.1825 18.3416 19.2653 18.2679 19.3339L16.2679 21.3339C16.1273 21.4744 15.9367 21.5533 15.7379 21.5533C15.5391 21.5533 15.3485 21.4744 15.2079 21.3339L13.2079 19.3339C13.1342 19.2653 13.0751 19.1825 13.0341 19.0905C12.9931 18.9985 12.9711 18.8991 12.9693 18.7984C12.9675 18.6977 12.9861 18.5977 13.0238 18.5043C13.0615 18.4109 13.1176 18.3261 13.1889 18.2549C13.2601 18.1837 13.3449 18.1275 13.4383 18.0898C13.5317 18.0521 13.6317 18.0336 13.7324 18.0353C13.8331 18.0371 13.9324 18.0592 14.0244 18.1001C14.1164 18.1411 14.1992 18.2002 14.2679 18.2739L14.9879 18.9939V14.8039C14.9879 14.605 15.0669 14.4142 15.2076 14.2736C15.3482 14.1329 15.539 14.0539 15.7379 14.0539ZM19.7079 14.2739C19.8485 14.1335 20.0391 14.0546 20.2379 14.0546C20.4367 14.0546 20.6273 14.1335 20.7679 14.2739L22.7679 16.2739C22.8416 16.3426 22.9007 16.4254 22.9417 16.5174C22.9827 16.6094 23.0047 16.7087 23.0065 16.8094C23.0083 16.9101 22.9897 17.0101 22.952 17.1035C22.9143 17.1969 22.8582 17.2817 22.7869 17.353C22.7157 17.4242 22.6309 17.4803 22.5375 17.518C22.4441 17.5558 22.3441 17.5743 22.2434 17.5725C22.1427 17.5707 22.0434 17.5487 21.9514 17.5077C21.8594 17.4667 21.7766 17.4076 21.7079 17.3339L20.9879 16.6139V20.8039C20.9879 21.0028 20.9089 21.1936 20.7682 21.3343C20.6276 21.4749 20.4368 21.5539 20.2379 21.5539C20.039 21.5539 19.8482 21.4749 19.7076 21.3343C19.5669 21.1936 19.4879 21.0028 19.4879 20.8039V16.6139L18.7679 17.3339C18.6992 17.4076 18.6164 17.4667 18.5244 17.5077C18.4324 17.5487 18.3331 17.5707 18.2324 17.5725C18.1317 17.5743 18.0317 17.5558 17.9383 17.518C17.8449 17.4803 17.7601 17.4242 17.6889 17.353C17.6176 17.2817 17.5615 17.1969 17.5238 17.1035C17.4861 17.0101 17.4675 16.9101 17.4693 16.8094C17.4711 16.7087 17.4931 16.6094 17.5341 16.5174C17.5751 16.4254 17.6342 16.3426 17.7079 16.2739L19.7079 14.2739ZM5.4879 16.8039C5.4879 16.605 5.56692 16.4142 5.70757 16.2736C5.84822 16.1329 6.03899 16.0539 6.2379 16.0539H10.2379C10.4368 16.0539 10.6276 16.1329 10.7682 16.2736C10.9089 16.4142 10.9879 16.605 10.9879 16.8039C10.9879 17.0028 10.9089 17.1936 10.7682 17.3343C10.6276 17.4749 10.4368 17.5539 10.2379 17.5539H6.2379C6.03899 17.5539 5.84822 17.4749 5.70757 17.3343C5.56692 17.1936 5.4879 17.0028 5.4879 16.8039Z" fill="#17171F"/>
</svg>
