<svg width="25" height="25" viewBox="0 0 25 25" fill="none" xmlns="http://www.w3.org/2000/svg">
<path d="M4.03822 9.34775C3.85489 9.34775 3.67907 9.27492 3.54944 9.14529C3.41981 9.01566 3.34698 8.83984 3.34698 8.65651V4.50911C3.34698 4.32578 3.41981 4.14996 3.54944 4.02033C3.67907 3.8907 3.85489 3.81787 4.03822 3.81787H20.6278C20.8112 3.81787 20.987 3.8907 21.1166 4.02033C21.2463 4.14996 21.3191 4.32578 21.3191 4.50911V8.65651C21.3191 8.83984 21.2463 9.01566 21.1166 9.14529C20.987 9.27492 20.8112 9.34775 20.6278 9.34775" stroke="#17171F" stroke-width="1.5" stroke-linecap="round" stroke-linejoin="round"/>
<path d="M16.4804 7.27405H8.18556C7.8038 7.27405 7.49432 7.58352 7.49432 7.96528V17.6426C7.49432 18.0243 7.8038 18.3338 8.18556 18.3338H16.4804C16.8621 18.3338 17.1716 18.0243 17.1716 17.6426V7.96528C17.1716 7.58352 16.8621 7.27405 16.4804 7.27405Z" stroke="#17171F" stroke-width="1.5" stroke-linecap="round" stroke-linejoin="round"/>
<path d="M12.333 14.8776C13.4783 14.8776 14.4067 13.9492 14.4067 12.8039C14.4067 11.6587 13.4783 10.7302 12.333 10.7302C11.1877 10.7302 10.2593 11.6587 10.2593 12.8039C10.2593 13.9492 11.1877 14.8776 12.333 14.8776Z" stroke="#17171F" stroke-width="1.5" stroke-linecap="round" stroke-linejoin="round"/>
<path d="M7.49432 21.79H17.1716" stroke="#17171F" stroke-width="1.5" stroke-linecap="round" stroke-linejoin="round"/>
</svg>
